<svg width="449.27mm" height="401.64mm" version="1.1" viewBox="0 0 1698 1518" xmlns="http://www.w3.org/2000/svg">
	<g transform="translate(235.13 317.83)" fill="none" stroke="#fff" stroke-width="3.9688">
		<path transform="matrix(3.7795 0 0 3.7795 -1217 -1529.2)" d="m423.49 322.5c-0.0508 0.0129-0.1016 0.0259-0.15234 0.0391-3.4634 0.0388-6.8819 0.78937-10.043 2.2051-0.38757 0.22097-0.76921 0.45217-1.1445 0.69336-0.94595 0.56251-1.8541 1.1862-2.7188 1.8672-1.3498 0.72783-2.6304 1.577-3.8262 2.5371l-87.68 87.115c-4.7525 4.722-7.4349 11.138-7.457 17.838l-0.39844 123.6c0.21684 1.0149 0.49602 2.0155 0.83594 2.9961 0.29977 2.7318 1.0433 5.3963 2.2012 7.8887 0.11775 0.47573 0.24931 0.94794 0.39453 1.416l-44.354 44.354c-9.8624 9.8654-9.8624 25.857 0 35.723l61.287 61.287c9.8656 9.8637 25.859 9.8637 35.725 0l43.965-43.967c0.26249 0.0759 0.5262 0.14751 0.79102 0.21484 3.4444 1.8671 7.2758 2.9075 11.191 3.0391 0.0865 0.0239 0.17306 0.0473 0.25977 0.0703l123.6 0.39844c4.2947-0.1296 8.4853-1.3524 12.176-3.5527l44.529 44.527c9.866 9.8619 25.858 9.861 35.723-2e-3l61.287-61.287c9.8624-9.8654 9.8624-25.857 0-35.723l-44.236-44.236c2.1726-3.6458 3.3918-7.7802 3.5449-12.021l0.39844-123.6c-0.0545-0.31688-0.11507-0.6327-0.18164-0.94727-0.10213-2.4966-0.57406-4.9642-1.4004-7.3223-0.25404-0.73755-0.54211-1.4629-0.86328-2.1738-1.0576-2.3818-2.4774-4.5856-4.209-6.5332-0.16551-0.22742-0.3348-0.45206-0.50781-0.67383-0.0594-0.0791-0.11933-0.1579-0.17969-0.23632l-87.117-87.68c-4.7225-4.753-11.14-7.4354-17.84-7.457z"/>
		<g transform="matrix(3.7795 0 0 3.7795 565.12 -1693.3)">
			<path d="m-49.066 689.57-87.116-87.679 0.39816-123.6 87.679-87.116 123.6 0.39822 87.116 87.679-0.39818 123.6-87.679 87.116z"/>
			<path d="m-48.105 391.18-29.677 208.08 28.716 90.316"/>
			<path d="m-136.18 601.89 58.4-2.637-58.002-120.96 148.52 30.447-60.838-117.56" stroke-linejoin="bevel"/>
			<path d="m75.494 391.58 27.754 207.68-28.716 90.714"/>
			<path d="m162.21 602.85-58.963-3.5983 59.362-120-149.88 29.485 62.761-117.16" stroke-linejoin="round"/>
			<path d="m12.733 508.74-90.515 90.515 90.515 90.515 90.515-90.515z" stroke-linejoin="bevel"/>
			<path d="m12.733 577-56.386 56.386 56.386 56.386 56.386-56.386z" stroke-linejoin="round"/>
			<path d="m-123.22 615.04 61.189 61.386-61.189 61.189-61.287-61.287z"/>
			<path d="m149.11 615.87 61.189 61.188-61.287 61.287-61.287-61.287z"/>
		</g>
	</g>
</svg>
